<?xml version="1.0" encoding="UTF-8" standalone="no"?>
<!-- Created with Inkscape (http://www.inkscape.org/) -->

<svg
   version="1.1"
   id="svg759"
   width="933.33331"
   height="1440"
   viewBox="0 0 933.33331 1440"
   sodipodi:docname="svgKerala.svg"
   inkscape:version="1.1.1 (3bf5ae0d25, 2021-09-20)"
   xmlns:inkscape="http://www.inkscape.org/namespaces/inkscape"
   xmlns:sodipodi="http://sodipodi.sourceforge.net/DTD/sodipodi-0.dtd"
   xmlns="http://www.w3.org/2000/svg"
   xmlns:svg="http://www.w3.org/2000/svg">
  <defs
     id="defs763" />
  <sodipodi:namedview
     id="namedview761"
     pagecolor="#ffffff"
     bordercolor="#666666"
     borderopacity="1.0"
     inkscape:pageshadow="2"
     inkscape:pageopacity="0.0"
     inkscape:pagecheckerboard="0"
     showgrid="false"
     inkscape:zoom="0.37291667"
     inkscape:cx="422.34636"
     inkscape:cy="765.58659"
     inkscape:window-width="1366"
     inkscape:window-height="745"
     inkscape:window-x="-8"
     inkscape:window-y="-8"
     inkscape:window-maximized="1"
     inkscape:current-layer="g765"
     showguides="false" />
  <g
     inkscape:groupmode="layer"
     inkscape:label="Image"
     id="g765">
    <path
       style="fill:#920a0a;fill-opacity:1;stroke-width:1.89615"
       d="m 770.83349,1270.5981 c -5.59594,-2.9469 -12.42349,-5.3698 -15.17234,-5.3842 -6.77869,-0.035 -7.76374,-0.8584 -19.24501,-16.0771 -5.50498,-7.297 -16.16966,-20.0898 -23.6993,-28.4285 -7.52964,-8.3387 -13.33086,-16.1808 -12.89161,-17.4268 1.56293,-4.4337 -3.36841,-9.8399 -13.48255,-14.781 -6.1448,-3.002 -15.27972,-10.2059 -22.775,-17.9606 -13.30744,-13.7681 -14.78533,-16.1873 -8.71407,-14.2642 4.69182,1.4861 7.16196,-3.5179 3.7585,-7.6139 -1.99536,-2.4015 -1.38136,-2.8193 4.14738,-2.8225 7.56527,0 11.03861,-2.8115 11.03506,-8.9184 -0.004,-6.7331 5.23449,-5.3367 13.38351,3.5678 7.01985,7.6707 7.48209,7.8641 14.00325,5.8585 6.3119,-1.9412 6.98854,-1.7306 10.56609,3.2874 3.77978,5.3017 4.03401,5.359 22.83365,5.1506 l 19.01132,-0.2107 -1.16759,-5.8154 c -0.64218,-3.1985 -1.62112,-7.4098 -2.17543,-9.3584 -0.92895,-3.2656 0.01,-3.4808 11.99092,-2.7498 10.90889,0.6656 14.67606,1.8753 23.4315,7.524 5.73801,3.702 13.61593,7.87 17.50648,9.2622 6.72197,2.4055 6.91623,2.7056 3.90642,6.0353 -2.89033,3.1975 -2.90907,3.9531 -0.21434,8.6398 1.62413,2.8247 3.49235,7.3993 4.1516,10.1657 0.65925,2.7664 6.32632,11.1598 12.5935,18.652 11.39329,13.6204 13.0715,17.9834 9.49293,24.6793 -1.72227,3.2226 -2.50011,3.3233 -8.05804,1.0435 -7.55557,-3.0992 -14.68351,-0.9106 -14.68036,4.5076 10e-4,2.0827 1.70926,4.699 3.79568,5.814 5.35872,2.8639 4.71412,5.0279 -1.89246,6.3533 -4.17727,0.8379 -5.68718,2.2104 -5.68546,5.168 10e-4,2.2148 -2.55608,6.4197 -5.68303,9.3441 -7.05857,6.6014 -7.17976,10.926 -0.46441,16.5723 l 5.21696,4.3864 -11.11442,-1.2383 c -6.46767,-0.7206 -11.6204,-0.4786 -12.32465,0.5789 -0.69905,1.0496 -5.50776,-0.446 -11.38468,-3.5409 z"
       id="fourteen" />
    <path
       style="fill:#920a0a;fill-opacity:1;stroke-width:0.670391"
       d="m 718.83686,1150.6274 c -0.80307,-0.5618 -2.43223,-2.8427 -3.62033,-5.0688 -3.48844,-6.5358 -6.36086,-7.2189 -15.21014,-3.6171 -2.31722,0.9431 -4.43274,1.5792 -4.70117,1.4136 -0.26842,-0.1657 -2.09284,-2.6753 -4.05427,-5.5769 -5.26425,-7.7876 -8.88144,-9.7588 -19.30148,-10.5184 -6.18745,-0.4511 -9.8431,0.5214 -10.15309,2.7009 -0.15369,1.0806 0.65717,1.9254 3.49903,3.6455 4.33744,2.6253 4.77736,3.3981 3.10882,5.4611 -1.16495,1.4404 -1.64259,1.5204 -7.92413,1.3273 -6.65805,-0.2046 -6.70593,-0.1946 -12.1173,2.5301 -6.05307,3.0479 -7.44051,3.2843 -9.02317,1.5375 -0.9833,-1.0853 -0.98934,-1.3886 -0.0634,-3.1843 0.56291,-1.0917 1.72707,-2.7394 2.58702,-3.6617 1.8555,-1.99 2.71641,-6.3757 1.74974,-8.9138 -1.34839,-3.5403 -6.30868,-1.5379 -7.19445,2.9044 -0.21829,1.0947 -0.54202,1.9905 -0.71941,1.9906 -0.17739,10e-5 -1.51022,-0.9393 -2.96186,-2.0877 -2.11316,-1.6716 -3.04567,-2.0064 -4.67747,-1.679 -2.48017,0.4975 -3.34957,0.052 -10.45449,-5.363 -5.07187,-3.8652 -5.89567,-4.2642 -8.80062,-4.2625 -1.76272,10e-4 -3.69764,-0.3749 -4.29982,-0.8355 -1.83279,-1.4017 -7.11668,-10.5582 -9.19027,-15.9259 -1.07576,-2.7847 -3.16129,-9.9047 -4.6345,-15.8222 -3.58757,-14.4102 -5.59937,-18.5423 -14.86384,-30.5289 l -1.38357,-1.7901 3.63966,-1.0604 c 2.00182,-0.5832 4.51462,-1.0609 5.58401,-1.0615 1.98679,0 7.16044,2.8807 8.84222,4.9253 0.51417,0.6251 2.68773,2.6533 4.83014,4.5072 l 3.89529,3.3706 4.9701,-3.3913 c 7.32233,-4.9962 10.37816,-6.1815 15.32913,-5.9462 l 4.14711,0.1972 -0.16526,4.0484 c -0.23706,5.8073 0.84212,6.6646 7.5889,6.0284 4.55924,-0.4299 5.39833,-0.3105 8.82605,1.2564 2.0833,0.9523 5.71174,3.1027 8.0632,4.7786 5.38097,3.835 8.16633,5.0111 10.11361,4.2702 0.81506,-0.3101 2.8661,-2.6481 4.55788,-5.1955 4.69814,-7.0742 6.63365,-7.6154 16.3176,-4.5624 6.93793,2.1872 10.56601,2.2497 13.20483,0.2275 1.08512,-0.8316 4.14595,-3.7747 6.80184,-6.5403 l 4.8289,-5.0283 8.57734,2.3111 c 13.34003,3.5944 17.72408,3.0478 15.82561,-1.973 -0.4217,-1.1153 -0.50733,-2.0279 -0.19028,-2.0281 0.31706,-2e-4 4.89229,1.5055 10.16718,3.3459 5.27489,1.8404 10.57498,3.3457 11.77797,3.3451 1.20299,-6e-4 4.36417,-0.6057 7.02485,-1.3447 7.8002,-2.1664 7.63975,-2.2443 10.51026,5.0998 0.94062,2.4065 2.41291,3.2986 7.09796,4.3008 1.8438,0.3944 5.95462,1.7548 9.13515,3.0231 6.52206,2.6008 8.93458,2.7807 17.3478,1.2937 6.48972,-1.1471 11.13802,-1.3013 11.70299,-0.3883 0.44059,0.7119 -0.74482,1.5957 -2.51058,1.8717 -2.11865,0.3313 -6.29407,2.7604 -8.78087,5.1085 -2.06434,1.9491 -2.41666,2.7118 -2.41143,5.2203 0.004,1.8369 0.51595,3.6908 1.36681,4.9479 0.74837,1.1057 2.58511,4.3346 4.08164,7.1752 2.60427,4.9434 5.55369,8.5311 10.65109,12.9561 1.29115,1.1209 4.08124,4.0362 6.20021,6.4784 2.56599,2.9576 4.51991,4.5867 5.85061,4.8782 2.5283,0.5537 6.05855,3.8039 6.05958,5.5788 4.3e-4,0.7437 -1.37205,2.9615 -3.04995,4.9283 -1.6779,1.9669 -4.61481,6.82 -6.52647,10.7848 l -3.47572,7.2088 -6.7075,-2e-4 c -3.68912,2e-4 -7.9144,-0.329 -9.38949,-0.7312 -4.03791,-1.1013 -12.72609,-5.6175 -18.98889,-9.8708 -10.16897,-6.9061 -10.10845,-6.8819 -19.02718,-7.6123 -10.28828,-0.8425 -17.18602,-0.2424 -20.13294,1.7516 -2.10967,1.4275 -2.19264,1.652 -2.14721,5.8115 0.026,2.3797 0.29286,5.7424 0.59305,7.4727 l 0.54578,3.1461 -3.60602,-0.9576 c -5.18857,-1.3777 -8.99464,-1.1925 -14.33132,0.6976 -5.43301,1.9241 -8.16312,2.1035 -10.21111,0.6708 z"
       id="thirteen" />
    <path
       style="fill:#920a0a;fill-opacity:1;stroke-width:1.89615"
       d="m 649.9346,1066.9553 c -4.10841,-2.4835 -10.24295,-4.5183 -13.63233,-4.5217 -7.48445,-0.01 -7.724,-1.4625 -1.10998,-6.7427 l 5.0541,-4.0348 -4.34364,-12.2811 c -4.10643,-11.6105 -4.17605,-12.6057 -1.27472,-18.2243 4.35718,-8.4378 3.93784,-18.5288 -0.97385,-23.43474 -3.52308,-3.51899 -5.57075,-3.9061 -16.14102,-3.05144 -7.21703,0.58353 -12.58631,0.20279 -13.29523,-0.94278 -0.72224,-1.16709 -5.55322,-1.46292 -12.30348,-0.75342 -10.93697,1.14956 -11.11436,1.09153 -11.1171,-3.63727 -0.002,-2.643 1.29756,-7.32365 2.88688,-10.40144 3.50791,-6.79322 9.12459,-7.28239 20.00047,-1.74189 4.16699,2.12279 8.36975,3.36862 9.33948,2.76852 0.96973,-0.60011 4.55606,-4.98493 7.96962,-9.74407 3.41356,-4.75913 8.4376,-9.80836 11.16453,-11.22052 4.36744,-2.26171 5.81393,-2.10949 12.14274,1.27782 3.95157,2.11496 8.90618,3.39412 11.01025,2.84259 5.2435,-1.37446 10.79879,1.94274 10.80141,6.44979 0.002,2.68584 1.29389,3.72483 4.63064,3.7229 2.54566,-10e-4 5.15533,-0.85627 5.79926,-1.89952 2.11996,-3.43464 16.20753,-1.98954 28.51205,2.92475 14.79768,5.91004 34.25992,6.11579 33.79954,0.35732 -0.14591,-1.82496 0.10053,-3.31833 0.54765,-3.31859 2.2828,-10e-4 15.46772,7.69194 17.61818,10.28002 3.8507,4.63434 5.73563,3.74624 16.40151,-7.72768 9.51928,-10.24048 10.26885,-10.65471 17.21209,-9.51163 3.99266,0.65732 10.48591,1.20264 14.42946,1.21183 5.10908,0.0119 7.50491,0.97033 8.33488,3.33429 0.64061,1.82468 3.71765,6.03511 6.83784,9.35652 5.45102,5.80255 5.58905,6.37342 3.5265,14.58471 -3.00834,11.97653 -2.69863,23.00273 0.72584,25.84143 1.7907,1.4844 5.7509,1.9849 10.56895,1.3358 l 7.7052,-1.038 -1.23549,7.8976 c -2.81688,18.0061 -4.3456,21.0316 -14.55149,28.7988 -13.39161,10.1916 -14.30491,10.6927 -23.10152,12.6745 -10.24439,2.308 -28.53438,-3.1468 -31.38508,-9.3603 -1.74498,-3.8035 -3.34689,-4.2693 -14.79653,-4.3028 -9.24446,-0.027 -16.02611,-1.348 -24.21934,-4.7175 -6.25879,-2.574 -12.44622,-4.6834 -13.74982,-4.6874 -2.98677,-0.01 -3.04208,2.3536 -0.12336,5.2689 3.57763,3.5735 1.10833,4.1682 -7.86865,1.8951 -8.30942,-2.104 -8.37882,-2.0795 -14.62017,5.1491 -6.15491,7.1286 -6.40718,7.2225 -13.61379,5.0679 -11.02544,-3.2963 -14.61083,-2.7242 -20.61816,3.2901 l -5.47451,5.4809 -7.46982,-4.5156 z"
       id="twelve" />
    <path
       style="fill:#920a0a;fill-opacity:1;stroke-width:1.89615"
       d="m 597.10961,1055.0353 c -1.80251,-1.9894 -5.77601,-4.6504 -8.83,-5.9133 -3.15398,-1.3043 -5.55355,-3.7327 -5.55464,-5.6215 -10e-4,-2.1377 -1.92913,-3.7095 -5.39832,-4.4013 -4.56531,-0.9103 -6.04222,-2.844 -9.58992,-12.5564 -4.0231,-11.0139 -5.73391,-12.5518 -12.93773,-11.6304 -5.25566,0.6722 -27.24655,-50.37112 -31.78495,-73.77644 -1.71867,-8.86351 -3.94709,-19.95471 -4.95204,-24.64711 -1.00494,-4.69239 -2.71659,-15.78389 -3.80365,-24.64777 -1.08707,-8.86388 -3.21722,-21.5013 -4.73367,-28.08316 -3.67689,-15.95882 -3.80924,-15.52339 4.71962,-15.52834 5.1145,-0.003 9.1159,1.40211 12.65705,4.44451 4.73979,4.0722 5.19111,5.63712 5.3309,18.48439 0.12128,11.14733 1.22705,16.32564 5.37359,25.16452 4.2994,9.16471 5.22241,13.74456 5.22949,25.94811 l 0.009,14.81912 15.29913,11.82109 c 19.84829,15.33606 21.39665,18.29628 17.75549,33.94563 -1.99998,8.5957 -2.20926,12.57177 -0.73882,14.03653 1.99741,1.98968 14.97396,2.93187 39.50425,2.8683 6.63016,-0.0171 13.24355,0.95412 14.69644,2.15852 3.62707,3.0066 3.31818,11.6203 -0.66712,18.6032 -3.20004,5.607 -3.1701,6.2069 0.86421,17.3141 4.63849,12.7706 5.00389,12.2442 -9.72956,14.0178 -5.14631,0.6195 -11.30145,2.4021 -13.67809,3.9613 -5.38973,3.536 -5.10637,3.5605 -9.04027,-0.7814 z"
       id="eleven" />
    <path
       style="fill:#920a0a;fill-opacity:1;stroke-width:1.89615"
       d="m 603.54058,971.07604 c -3.65119,-1.88703 -9.70133,-3.43051 -13.44474,-3.42996 -5.35255,7.9e-4 -7.25194,-0.97576 -8.89317,-4.57232 -1.14783,-2.51533 -7.47475,-8.99831 -14.05983,-14.40661 -6.58509,-5.4083 -13.86445,-11.42055 -16.17637,-13.36054 -3.78639,-3.17726 -4.09292,-4.71881 -3.08918,-15.53556 0.99096,-10.67895 0.45737,-13.50275 -4.8201,-25.50801 -3.26393,-7.42485 -5.93616,-16.51352 -5.9383,-20.19705 -0.004,-6.68803 0.0122,-6.70051 11.60892,-8.98902 8.07774,-1.59407 13.99263,-4.21854 19.43056,-8.62146 9.04257,-7.32148 15.93486,-11.20743 17.35756,-9.78639 0.54653,0.54589 0.19291,3.10242 -0.78581,5.68117 -0.97872,2.57874 -1.21421,5.50844 -0.52331,6.51044 2.12589,3.0831 15.49809,10.17689 19.18001,10.17475 3.7463,-0.002 6.2282,-4.21379 4.75059,-8.06141 -0.6828,-1.77797 3.00103,-2.37106 14.75331,-2.37525 14.57433,-0.005 16.0201,0.3565 20.7946,5.20234 5.65764,5.74219 8.22053,6.18313 18.35552,3.15807 6.06175,-1.80929 7.90649,-1.45776 15.93573,3.03661 6.1573,3.44656 11.19844,8.38957 15.65994,15.35511 4.68778,7.3188 8.09305,10.57412 11.84346,11.32194 4.19075,0.83562 6.08285,3.04732 9.28085,10.84853 l 4.01693,9.79892 -4.3485,0.58388 c -4.98255,0.66902 -6.56471,4.905 -6.59502,17.65716 -0.0208,8.75255 -0.0193,8.75457 9.71516,12.79339 5.35478,2.2217 12.2531,4.03799 15.32959,4.03621 6.77252,-0.004 6.31453,4.42168 -0.55629,5.3753 -7.01404,0.97349 -8.3566,3.36841 -4.86867,8.68492 1.72088,2.62306 3.12913,5.22587 3.12945,5.784 10e-4,2.52999 -15.05261,0.5575 -22.75556,-2.9816 -10.20716,-4.68964 -29.14304,-6.91401 -32.82367,-3.85574 -1.97944,1.64473 -3.51937,0.80818 -6.88704,-3.74132 -3.72327,-5.02988 -5.22382,-5.71536 -10.59585,-4.8404 -3.86062,0.6288 -7.59272,0.009 -9.74128,-1.61689 -1.91563,-1.44992 -6.76807,-2.66144 -10.78319,-2.69228 -7.44321,-0.0572 -13.19029,4.20776 -23.09383,17.13799 l -3.72395,4.86204 z"
       id="ten" />
    <path
       style="fill:#920a0a;fill-opacity:1;stroke-width:1.89615"
       d="m 829.41594,1014.3575 c -2.71323,-2.71 -2.66505,-8.8544 0.17768,-22.65795 l 2.2886,-11.11289 -7.03917,-6.44122 c -3.87156,-3.54269 -7.03995,-7.74837 -7.04088,-9.34601 -0.002,-3.16022 -5.29125,-4.95743 -14.22395,-4.8329 -3.12863,0.0435 -9.40404,-0.46759 -13.94537,-1.13598 -8.11322,-1.19415 -8.43094,-1.03109 -18.25209,9.36671 -9.78549,10.36006 -10.06517,10.50473 -13.33407,6.89684 -1.83641,-2.02684 -7.70138,-5.32955 -13.03325,-7.33937 -7.44454,-2.80615 -8.91219,-3.9652 -6.32415,-4.99434 9.27003,-3.68621 7.53455,-16.78125 -2.08077,-15.70038 -2.8002,0.31476 -9.14522,-1.03019 -14.10006,-2.98881 -8.069,-3.18961 -9.00612,-4.17709 -8.98318,-9.466 0.0374,-8.61451 2.36198,-11.52644 7.15626,-8.96418 7.00044,3.74129 6.51494,-1.98576 -2.152,-25.38512 -2.28919,-6.18046 -4.00838,-7.86526 -9.29929,-9.11328 -5.10487,-1.20415 -7.67453,-3.56682 -12.03394,-11.06459 -4.30632,-7.40647 -7.99913,-10.83791 -16.55143,-15.37994 -10.67283,-5.66824 -11.30156,-5.77113 -20.62614,-3.37553 l -9.61775,2.4709 -4.72177,-6.02609 c -4.14543,-5.29055 -5.67871,-5.95505 -12.56165,-5.444 -7.59781,0.56412 -7.85834,0.39183 -8.43763,-5.58005 l -0.59776,-6.16215 10.07488,-0.10611 10.07487,-0.10611 4.94663,-9.85742 c 4.19126,-8.35217 5.85145,-9.94839 10.87214,-10.45319 3.4528,-0.34716 7.13777,-2.32746 8.8305,-4.74551 2.58775,-3.69659 4.609,-4.15072 18.50973,-4.1588 18.03481,-0.0105 20.50473,-2.83023 8.41245,-9.60398 -6.39088,-3.57999 -6.85113,-4.30791 -4.14532,-6.55619 2.42404,-2.01414 4.30073,-2.07537 9.21734,-0.30073 8.24998,2.97781 7.52551,3.2885 13.60519,-5.83463 10.86882,-16.30968 11.33837,-16.5964 27.22012,-16.62147 12.81794,-0.0202 29.00589,-1.82861 44.24195,-4.94236 6.39281,-1.30648 9.50115,-6.58746 7.81706,-13.28094 -1.20517,-4.78999 -1.68074,-4.96144 -10.76365,-3.88035 -8.32906,0.99136 -9.06697,0.81201 -5.97437,-1.45211 3.05071,-2.23346 3.214,-3.27213 1.20619,-7.67202 -2.93466,-6.43097 -2.01823,-7.83501 5.96237,-9.13484 3.53874,-0.57637 12.14268,-3.3356 19.11987,-6.13162 7.50003,-3.00554 14.45698,-4.64022 17.01856,-3.99889 2.88265,0.72172 7.31476,6.12801 13.24265,16.15343 4.90043,8.28775 9.86231,15.3855 11.0264,15.77278 1.51389,0.50366 1.33594,3.91028 -0.62499,11.96511 -2.59559,10.66171 -3.09025,11.31918 -9.29555,12.35469 -16.96724,2.83141 -19.76428,10.77249 -7.49042,21.26611 4.17361,3.56825 7.589,7.55683 7.58976,8.8635 7.6e-4,1.30668 1.3689,5.25329 3.04032,8.77027 l 3.03894,6.39449 -6.82379,6.44315 c -6.56139,6.1954 -6.8235,6.94922 -6.81615,19.60395 0.005,8.28089 0.99164,14.50487 2.66143,16.78565 2.3197,3.16849 2.20093,4.20125 -0.94331,8.20328 -1.97841,2.51814 -3.59612,6.24863 -3.59494,8.28999 0.001,2.04135 -1.70312,5.88205 -3.78735,8.53488 -2.08422,2.65284 -3.78841,6.6927 -3.78709,8.97748 10e-4,2.28478 -2.12959,6.15939 -4.73538,8.61025 -5.09962,4.79644 -5.91705,9.42081 -2.71981,15.38658 1.32539,2.47305 3.19762,3.38113 5.47668,2.65633 1.94745,-0.61935 7.41513,0.9972 12.49408,3.69392 10.45984,5.55374 15.37482,5.91747 25.07965,1.85591 6.32292,-2.64621 7.22105,-2.64673 9.15484,-0.005 2.5815,3.5261 7.67809,3.84009 9.00161,0.55455 0.52525,-1.30391 1.02396,0.3541 1.10822,3.68446 0.11722,4.63371 1.48908,6.84328 5.84363,9.41216 8.76271,5.16939 6.63489,13.7843 -4.56205,18.47032 -5.38561,2.25394 -6.67355,4.08256 -8.62783,12.24989 -1.75865,7.34966 -4.70079,12.14522 -12.54911,20.45453 -5.63853,5.96964 -10.25128,11.89644 -10.25054,13.17044 0.002,3.4343 -10.43695,6.6635 -13.06265,4.0408 z"
       id="nine" />
    <path
       style="fill:#920a0a;fill-opacity:1;stroke-width:1.89615"
       d="m 595.27084,859.98301 c -4.40235,-2.67996 -5.21285,-4.28363 -4.52525,-8.95364 1.19839,-8.13912 -0.15287,-10.42875 -6.15265,-10.42526 -3.31409,0.002 -8.84161,2.84005 -14.83269,7.61591 -8.60162,6.85688 -21.9852,13.26315 -27.71549,13.26648 -1.19605,6.9e-4 -3.85402,-3.11282 -5.9066,-6.91893 -4.27198,-7.92156 -12.3312,-12.032 -23.57797,-12.02547 -6.4947,0.004 -8.01698,-0.80694 -10.49299,-5.5882 -4.17979,-8.07134 -3.6947,-11.46893 1.63793,-11.47203 5.4735,-0.003 6.83762,-3.06438 6.8305,-15.32827 -0.004,-7.02539 -0.70698,-9.32527 -2.84965,-9.32403 -1.93881,10e-4 -2.85461,-1.96006 -2.87684,-6.16082 -0.0378,-7.1352 -1.07638,-8.92902 -7.56316,-13.06258 -4.43855,-2.82837 -10.76864,-14.89502 -7.81473,-14.89674 0.73989,-4.3e-4 6.00043,2.96112 11.69006,6.58121 9.61278,6.11623 20.77494,8.82163 20.77274,5.03473 -5.2e-4,-0.90105 -3.41539,-4.00155 -7.58861,-6.89001 -8.68902,-6.01403 -9.97709,-9.34058 -2.52102,-6.51074 8.33417,3.1631 10.72353,1.00417 9.62445,-8.69626 l -0.9629,-8.49847 6.90588,-0.004 c 3.87506,-0.002 12.21909,-2.59998 19.01231,-5.91907 13.5728,-6.6315 19.86747,-7.09141 38.0801,-2.78228 16.6786,3.94618 26.5484,3.9027 26.54607,-0.11694 -10e-4,-2.51125 1.13837,-2.8122 6.16155,-1.62686 3.38984,0.79991 9.34696,1.60945 13.23806,1.79897 3.89109,0.18952 8.65217,1.7705 10.58018,3.51329 4.6883,4.2379 10.27614,3.98866 19.81311,-0.88372 7.02607,-3.58958 9.87091,-3.91173 25.14249,-2.84716 13.65045,0.95156 17.98596,0.62045 20.91502,-1.59735 5.33218,-4.03735 6.53879,-3.58772 6.54229,2.43793 0.005,8.66726 7.02067,13.56829 22.47514,15.70079 10.8381,1.49551 14.25843,1.32485 17.75756,-0.88604 2.38365,-1.50608 6.18273,-3.28994 8.44238,-3.96413 3.36979,-1.0054 3.93919,-0.57686 3.1669,2.38346 -1.35855,5.2074 3.49871,6.31249 13.92483,3.16809 9.819,-2.96131 11.93307,-2.40124 8.92998,2.36577 -2.86662,4.5504 -10.26777,6.05138 -35.81054,7.26252 -12.51426,0.59337 -24.69784,1.47471 -27.07463,1.95851 -2.66236,0.54194 -6.90271,4.92003 -11.04505,11.40384 -6.70048,10.48795 -6.74975,10.5198 -14.30802,9.24735 -6.33517,-1.06653 -8.3404,-0.56577 -12.17441,3.0403 -5.94573,5.59221 -5.79239,8.55068 0.62891,12.13513 5.09887,2.84626 4.94831,2.90416 -6.6975,2.57594 -10.30188,-0.29035 -12.30414,0.2225 -14.80049,3.79095 -1.78263,2.54821 -4.89524,4.12789 -8.13731,4.12978 -5.76389,0.003 -11.26591,5.01025 -16.15866,14.70457 -2.53546,5.02366 -4.24243,6.16975 -9.22493,6.19374 -12.76715,0.0615 -14.95108,1.61048 -14.36899,10.19153 l 0.52937,7.80407 -9.19274,-0.59115 -9.19275,-0.59115 1.16556,5.81023 c 1.33595,6.65966 0.47346,6.96337 -6.9468,2.44622 z"
       id="eight" />
    <path
       style="fill:black;fill-opacity:1;stroke-width:1.89615"
       d="m 470.90166,756.76539 c -0.87368,-2.34598 -2.75518,-8.95772 -4.18111,-14.69275 -1.42593,-5.73503 -7.50231,-20.0145 -13.50306,-31.73214 -6.20841,-12.12312 -10.42331,-22.57656 -9.78007,-24.25572 0.95701,-2.49826 1.54738,-2.35633 3.84875,0.92527 3.92373,5.595 8.86954,5.10182 7.74313,-0.77212 -0.54412,-2.83745 0.10643,-5.02818 1.67183,-5.62992 4.44029,-1.70686 2.78565,-4.94624 -3.12889,-6.12557 -4.30598,-0.8586 -5.68972,-2.1755 -5.6916,-5.4167 -0.004,-6.09536 -9.18798,-7.89059 -13.62878,-2.66394 -3.10716,3.65701 -3.4105,3.39541 -10.8868,-9.38872 -7.28915,-12.46413 -11.53082,-21.52632 -11.53263,-24.63909 -4.5e-4,-0.77163 6.42882,-2.48718 14.28726,-3.81232 10.31185,-1.73886 14.92309,-3.42747 16.56989,-6.06784 2.63924,-4.23157 5.75842,-4.50055 17.09886,-1.4745 11.7633,3.13888 17.21442,1.10083 23.46257,-8.77212 6.51637,-10.29678 10.24356,-10.74172 21.39122,-2.55362 10.98091,8.06563 27.86738,9.80452 36.09179,3.71655 4.46787,-3.30725 6.38333,-3.65068 11.69119,-2.09617 3.49134,1.02251 9.54734,1.33485 13.45779,0.69409 3.91044,-0.64076 7.1102,-0.63907 7.11057,0.004 3.7e-4,0.64282 -4.68832,8.02399 -10.41931,16.40261 -5.731,8.37862 -10.41901,16.91809 -10.41782,18.9766 0.003,4.92531 8.13498,20.81474 12.60839,24.63567 5.6189,4.79934 27.43351,16.29901 39.3898,20.76451 8.09613,3.02379 11.93177,5.71975 14.62608,10.28021 2.61997,4.43464 6.57743,7.29908 14.00359,10.13598 9.55426,3.64984 11.0413,3.7464 19.30645,1.25372 9.75754,-2.94277 9.67393,-2.96427 12.78552,3.28691 1.90156,3.82022 3.74719,4.35898 16.58169,4.84042 l 14.44198,0.54174 0.93091,6.08587 c 1.12497,7.35446 0.48706,8.32973 -3.36159,5.1394 -3.83985,-3.18302 -26.90267,-1.36718 -34.83977,2.7431 -7.21506,3.73637 -12.37346,3.7803 -15.40554,0.13119 -1.29919,-1.56357 -5.23187,-2.84119 -8.73929,-2.83915 -3.50745,0.002 -10.17483,-1.00965 -14.81642,-2.2482 -7.80606,-2.08295 -8.69721,-1.94251 -11.87708,1.87167 l -3.43781,4.12358 -16.9715,-3.75107 c -22.48674,-4.97005 -27.34051,-4.75705 -41.86099,1.83702 -6.75902,3.06942 -16.12445,6.15818 -20.81206,6.86392 l -8.52293,1.28315 0.005,8.1177 0.005,8.11771 -6.9658,-1.5668 c -3.83119,-0.86173 -7.71448,-2.90279 -8.62954,-4.53568 -0.91505,-1.63289 -3.43235,-2.96786 -5.594,-2.96661 -3.26361,0.002 -3.53355,-0.47628 -1.59143,-2.81915 3.32895,-4.0159 0.85808,-9.22019 -3.79807,-7.99969 -2.07174,0.54306 -4.24509,0.21449 -4.82967,-0.73015 -1.54386,-2.49479 -8.42389,-2.10435 -8.42239,0.47796 7e-4,1.20517 2.2223,5.09963 4.9369,8.65436 2.71459,3.55473 4.63628,6.71833 4.27042,7.03023 -1.93621,1.65063 -9.22162,4.87804 -11.0138,4.87908 -1.13726,6.6e-4 -2.78257,-1.91824 -3.65626,-4.26422 z"
       id="seven" />
    <path
       style="fill:#920a0a;fill-opacity:1;stroke-width:1.89615"
       d="m 672.41283,717.77136 c -1.14793,-0.77828 -3.09929,-3.33431 -4.33635,-5.68008 -2.48765,-4.71717 -8.3584,-5.46945 -18.94253,-2.42732 -8.65275,2.48701 -17.70951,-1.47994 -28.09444,-12.30568 -4.46505,-4.65456 -9.36095,-8.46211 -10.87978,-8.46123 -3.38454,0.002 -36.72705,-16.59215 -41.60164,-20.70458 -4.01112,-3.38396 -10.71023,-15.70711 -10.71255,-19.70595 -8.6e-4,-1.46792 4.72452,-9.77951 10.50083,-18.47021 14.61631,-21.99085 14.14002,-23.22042 -9.22166,-23.80621 -16.48878,-0.41345 -19.0402,-0.032 -22.42042,3.35217 -5.10979,5.11573 -16.3755,3.3397 -28.85652,-4.54921 -11.61497,-7.34149 -24.6016,-8.41302 -25.49842,-2.10387 -0.31315,2.20301 -3.032,6.36757 -6.04189,9.25458 l -5.47252,5.24911 -15.7599,-2.41368 c -20.49214,-3.13844 -25.08824,-5.85553 -23.45165,-13.86402 0.67378,-3.29708 1.70294,-8.76809 2.28702,-12.1578 1.21736,-7.06499 0.68916,-6.87049 10.6065,-3.90546 7.39814,2.21185 7.66492,2.1242 12.83408,-4.21683 l 5.27889,-6.47564 11.08665,2.20939 c 16.67288,3.32262 31.87697,-1.47334 35.18649,-11.0992 0.29782,-0.86625 4.13761,-0.33572 8.53285,1.17894 10.48519,3.61335 13.81727,2.17008 13.81253,-5.98281 -0.003,-5.4159 1.10068,-7.15012 6.63048,-10.41712 3.64885,-2.15572 6.63363,-5.01064 6.63285,-6.34426 -0.002,-3.85814 -5.17035,-7.09972 -9.25045,-5.80213 -2.8955,0.92085 -3.87973,0.20757 -4.35917,-3.15908 -0.5405,-3.79543 -1.54595,-4.27441 -7.9057,-3.76615 -9.34538,0.74687 -7.54342,-2.53289 2.25574,-4.10567 4.05882,-0.65145 8.44242,-2.46649 9.74132,-4.03342 1.2989,-1.56693 5.67708,-3.74378 9.72928,-4.83746 10.71569,-2.89211 14.37335,-9.28643 11.4818,-20.07251 -1.23393,-4.6028 -2.24405,-9.30225 -2.24471,-10.44322 -0.002,-2.80087 9.44438,-0.36431 13.80473,3.56087 3.09813,2.78893 4.17207,2.78348 13.06548,-0.0662 8.60271,-2.75655 10.2941,-2.7929 15.07526,-0.32398 8.60896,4.44553 44.57539,1.07661 54.19922,-5.07676 4.28269,-2.7383 9.26327,-4.35232 12.3127,-3.99009 4.56201,0.54189 4.90931,1.07334 3.18228,4.8696 -1.06623,2.34372 -4.43537,5.2054 -7.48702,6.35929 -7.90613,2.98948 -7.04967,7.56544 1.86419,9.96014 8.21642,2.20733 11.9211,8.66609 10.18786,17.76157 -0.52994,2.78094 0.0955,6.33063 1.38959,7.88821 2.02436,2.43634 1.23575,2.83262 -5.645,2.83661 -10.34954,0.006 -17.66519,5.25381 -21.79091,15.63147 -1.76786,4.44673 -4.42871,9.44039 -5.91304,11.09703 -2.35032,2.62315 -2.25596,3.41234 0.73078,6.11214 5.12898,4.63624 18.08775,8.66829 38.2462,11.9001 19.18272,3.07538 22.64905,5.11562 28.48244,16.76447 2.46614,4.92464 3.81122,5.6945 9.05834,5.18452 5.35346,-0.52032 6.15948,-0.0231 6.14185,3.78874 -0.0119,2.41321 -2.18826,8.18566 -4.83802,12.82766 -3.25848,5.70843 -4.62903,10.61869 -4.23468,15.17168 l 0.58303,6.73167 -10.42828,0.95413 c -9.48229,0.86759 -10.47929,1.39429 -10.99047,5.80622 -0.76579,6.60961 2.69514,15.05628 6.16834,15.05426 2.14229,-10e-4 2.46434,1.05148 1.30493,4.26559 -0.84662,2.34698 -2.65047,11.64621 -4.00858,20.66495 -2.39777,15.92284 -2.34439,16.5995 1.84271,23.3656 2.40619,3.88821 3.57757,7.64334 2.65034,8.49614 -2.34763,2.15915 -23.98542,4.17667 -26.50128,2.47099 z"
       id="six" />
    <path
       style="fill:#920a0a;fill-opacity:1;stroke-width:1.89615"
       d="m 407.72617,624.0803 c -1.6257,-1.30755 -5.63752,-7.43362 -8.91517,-13.6135 -4.6858,-8.8349 -5.9607,-13.56732 -5.96569,-22.14445 -0.006,-9.61335 -0.47758,-10.97997 -3.97595,-11.51192 -3.38726,-0.51506 -5.20464,-4.91453 -12.38824,-29.98909 -4.63025,-16.16201 -9.4263,-31.36024 -10.65791,-33.77384 -2.24,-4.38978 -1.18751,-6.14375 5.16762,-8.61179 1.22213,-0.47462 1.13724,-2.00146 -0.23892,-4.29703 -1.84999,-3.08597 -1.34471,-3.8354 3.78904,-5.61987 8.43938,-2.9335 9.14939,-9.74272 1.32336,-12.69152 -3.20978,-1.20943 -5.83629,-2.7585 -5.83668,-3.44238 -8.8e-4,-1.51144 9.91458,-3.61938 17.04457,-3.62352 2.85765,-0.002 7.32229,-1.67777 9.92142,-3.7247 4.12671,-3.24994 6.74259,-3.59141 20.63779,-2.69398 15.79736,1.02028 15.9868,0.97862 26.27304,-5.77709 5.69852,-3.74263 11.02967,-6.80517 11.847,-6.80565 2.86904,-0.002 1.42629,-8.6001 -2.53074,-15.08263 l -3.99767,-6.54909 7.31558,-6.26429 c 4.02356,-3.44537 9.00544,-7.75291 11.07084,-9.57232 2.0654,-1.81941 5.14127,-4.16209 6.83527,-5.20596 1.69401,-1.04387 7.90644,-5.22985 13.80541,-9.30218 5.89897,-4.07233 11.23953,-6.89071 11.86792,-6.26306 0.62838,0.62766 1.5823,5.02279 2.11983,9.76697 0.90846,8.01797 1.3626,8.62556 6.44491,8.62261 3.00717,-0.002 6.94968,0.7705 8.76113,1.7161 6.78649,3.54265 23.9152,7.74509 31.48302,7.72419 6.44208,-0.0178 8.68717,1.00613 12.58462,5.73941 3.62866,4.40684 7.61085,6.42798 16.94106,8.59835 13.36574,3.10909 24.78461,9.16759 24.78693,13.15117 0.003,4.83783 -9.45048,13.76153 -20.11222,18.98551 -6.15295,3.01479 -11.1104,6.8061 -11.66145,8.91832 -0.95109,3.64561 -2.76228,3.70549 -13.817,0.45684 -1.6193,-0.47587 -4.57632,0.32968 -6.57115,1.79011 -3.32683,2.43561 -3.42898,3.42593 -1.23446,11.96784 1.31587,5.12188 1.8981,10.54443 1.29388,12.0501 -1.30916,3.26222 -23.95392,14.49458 -32.73413,16.23695 -4.33977,0.86119 -6.51456,2.53843 -7.28582,5.61895 -1.68955,6.74828 0.51796,8.54508 8.85442,7.20706 7.10335,-1.14011 7.46961,-0.95464 7.47237,3.78385 0.002,3.41528 1.01163,4.98214 3.20953,4.98086 2.89876,-0.002 2.91917,0.22588 0.2126,2.37007 -1.64672,1.30456 -3.56586,5.64334 -4.26477,9.64173 -1.03078,5.89708 -1.87562,7.00664 -4.47415,5.87615 -8.70563,-3.78737 -14.93213,-3.11451 -18.99147,2.05228 -5.18708,6.60219 -16.73347,9.36055 -27.30014,6.52182 -10.82485,-2.90809 -20.06885,-0.83827 -22.76958,5.09832 -1.63172,3.58675 -3.13424,4.48229 -6.07314,3.61974 -2.14776,-0.63035 -6.54132,-1.62738 -9.76347,-2.21563 l -5.85847,-1.06953 -3.14629,12.99952 c -4.21248,17.40469 -4.06909,18.62921 2.81132,24.0075 3.2692,2.55546 5.41458,5.50404 4.76751,6.5524 -0.64708,1.04835 -5.23968,2.48213 -10.2058,3.1862 -4.96611,0.70406 -10.35373,1.66293 -11.9725,2.13079 -1.61876,0.46787 -4.27331,-0.21914 -5.89901,-1.52669 z"
       id="five" />
    <path
       style="fill:#920a0a;fill-opacity:1;stroke-width:1.89615"
       d="m 346.88092,479.05108 c -2.75549,-5.99498 -5.96277,-13.996 -7.12729,-17.78003 -1.16451,-3.78403 -3.79259,-8.39441 -5.84018,-10.24529 -4.77923,-4.3201 -4.75095,-6.48252 0.0684,-5.22523 3.52798,0.9204 3.79234,0.056 3.78512,-12.37693 -0.007,-11.91463 -0.44048,-13.5035 -3.99168,-14.62833 -6.07076,-1.92291 -8.29992,1.65857 -4.5705,7.34319 2.18946,3.33729 2.63055,5.81321 1.42118,7.97719 -1.45915,2.61092 -2.59943,1.69665 -6.78963,-5.44388 -6.12403,-10.43596 -12.81541,-15.94693 -21.28594,-17.53091 -7.4676,-1.39644 -8.99913,-3.01432 -12.18196,-12.86874 -1.90092,-5.88548 -1.89617,-7.62706 0.0241,-8.81537 3.4527,-2.13666 0.85431,-7.24967 -4.34586,-8.55162 -3.23792,-0.81067 -5.87846,-4.38985 -9.70002,-13.14809 -2.88804,-6.6188 -6.8997,-13.52452 -8.91479,-15.34602 -5.12384,-4.6316 -4.56502,-6.76388 1.19927,-4.57613 2.67569,1.01552 8.13895,1.8445 12.14057,1.84217 6.37932,-0.004 7.51958,-0.70518 9.25538,-5.69383 1.35003,-3.87993 3.24312,-5.69034 5.95188,-5.69191 2.18469,-10e-4 8.02528,-3.79793 12.97907,-8.43703 8.86587,-8.30265 9.13035,-8.40346 16.891,-6.43839 6.99525,1.77126 8.48176,1.52514 13.18549,-2.18311 l 5.3014,-4.17942 1.25629,8.61271 c 1.44088,9.87815 2.75341,12.59482 6.08415,12.59288 1.30017,-7.5e-4 5.30411,2.18311 8.89764,4.85303 5.39451,4.00801 7.8735,4.65729 14.21797,3.72391 l 7.68426,-1.13049 -0.72731,6.26149 c -0.53075,4.56931 0.34046,7.22669 3.22367,9.83291 2.17304,1.96428 3.95209,5.47969 3.95344,7.81203 0.002,3.15231 1.88243,4.99157 7.3278,7.1667 5.66197,2.26166 7.5867,4.22895 8.47634,8.6638 2.11286,10.53246 23.01775,17.20866 39.42575,12.59103 4.31188,-1.21347 5.13242,-0.72981 6.24173,3.67923 0.70248,2.792 3.42867,7.22531 6.05819,9.85178 2.62953,2.62648 4.51605,4.96139 4.19226,5.1887 -0.32381,0.2273 -3.24809,2.24953 -6.49843,4.49385 -3.25035,2.24431 -6.9981,6.71251 -8.32836,9.92933 -2.15429,5.20947 -1.97369,6.44989 1.65232,11.34837 2.23904,3.02479 4.07139,6.20715 4.0719,7.07191 5e-4,0.86477 -4.71829,4.43619 -10.4862,7.93649 -10.12903,6.14688 -10.9854,6.32678 -25.08066,5.269 -12.12314,-0.90979 -15.56299,-0.5058 -20.32029,2.38654 -3.14971,1.91495 -9.56611,4.05285 -14.25868,4.75089 -12.978,1.93055 -18.95875,4.77911 -18.95629,9.02868 0.002,3.21975 -6.56112,10.73204 -9.53941,10.91923 -0.55717,0.035 -3.26753,-4.84131 -6.02302,-10.83629 z"
       id="three" />
    <path
       style="fill:#920a0a;fill-opacity:1;stroke-width:1.89615"
       d="m 460.47654,406.92486 c -1.77215,-1.95592 -4.17106,-6.27337 -5.33093,-9.59435 -2.38628,-6.83254 -7.08799,-7.78231 -17.44056,-3.5231 -5.38599,2.21588 -7.32131,2.04055 -16.5313,-1.49771 -8.24248,-3.16656 -10.56747,-4.98408 -11.08079,-8.66221 -0.74968,-5.37173 -5.4738,-11.28853 -9.0114,-11.28648 -1.33511,7.8e-4 -5.36631,-4.3778 -8.95822,-9.73016 -6.36521,-9.48488 -6.45266,-9.87028 -3.44998,-15.20334 4.04864,-7.19079 0.97372,-9.29298 -10.12176,-6.9198 -7.38168,1.57884 -9.0051,1.1958 -17.38269,-4.10141 -8.98705,-5.68258 -9.30008,-6.19253 -11.40853,-18.58527 -1.19236,-7.0083 -2.049,-12.81869 -1.90365,-12.91197 0.14535,-0.0933 7.57638,0.66296 16.51339,1.68053 19.16672,2.18232 27.20658,-0.21285 27.58135,-8.21683 0.56681,-12.10519 0.90714,-12.2796 24.0428,-12.32122 17.26875,-0.0311 23.33453,-0.82697 32.47548,-4.2612 6.18225,-2.32265 11.66266,-3.80129 12.17869,-3.28586 0.51603,0.51542 0.74698,5.83742 0.51323,11.82665 -0.27643,7.08279 0.52741,12.18084 2.29947,14.58348 2.51571,3.41094 3.32412,3.49569 10.55071,1.10604 9.86925,-3.2635 15.78138,-0.59524 21.72613,9.80544 3.83644,6.71208 4.64447,7.14896 13.23841,7.15768 9.57675,0.01 12.38562,1.98294 23.35276,16.40525 l 4.05662,5.33465 13.14392,-4.24171 c 7.22915,-2.33294 13.73342,-4.24205 14.4539,-4.24247 0.7205,-4.2e-4 0.77429,3.3619 0.11962,7.47182 -0.91676,5.75452 -0.2719,8.95691 2.80477,13.92862 4.59565,7.4264 3.8456,8.93407 -4.44709,8.93889 -4.14789,0.002 -7.61851,1.73058 -11.38972,5.67146 -3.11389,3.25398 -8.31062,6.18881 -12.2017,6.89086 -3.72775,0.67257 -7.92636,2.13855 -9.33025,3.25773 -1.89931,1.51413 -3.01537,1.2089 -4.36125,-1.19279 -3.16004,-5.63898 -22.47804,-3.31934 -22.47454,2.69866 10e-4,2.37421 -5.47266,7.08761 -16.58304,14.27878 -19.72647,12.76791 -21.46015,13.35888 -25.64385,8.74134 z"
       id="four" />
    <path
       style="fill:#920a0a;fill-opacity:1;stroke-width:1.89615"
       d="m 263.76291,340.36193 -14.22415,-5.16943 0.55206,-6.97011 c 0.56934,-7.18823 -0.9649,-8.65123 -4.91998,-4.69155 -1.76872,1.77077 -2.27449,1.53389 -2.276,-1.06595 -10e-4,-2.1722 -1.20013,-3.13894 -3.42381,-2.76089 -4.67454,0.79472 -13.44436,-5.24424 -15.51646,-10.68475 -1.04487,-2.74343 -3.84569,-4.93447 -7.26515,-5.68343 -3.06061,-0.67036 -7.52839,-3.3066 -9.9284,-5.85832 -2.40001,-2.55172 -5.92145,-4.63858 -7.82543,-4.63748 -1.90397,0.001 -3.46224,-0.79169 -3.4628,-1.76178 -6.2e-4,-1.06683 2.29774,-1.10596 5.81648,-0.099 6.0994,1.74545 15.04089,-0.43244 15.03901,-3.66307 -0.001,-1.89315 -2.48187,-2.84593 -12.80188,-4.91675 -3.38977,-0.6802 -6.16365,-1.9812 -6.16418,-2.89112 -0.002,-2.69124 -16.47298,-13.20393 -20.68425,-13.20149 -4.62415,0.003 -10.92542,-10.36955 -7.56354,-12.45001 2.95106,-1.82622 -2.1702,-4.79848 -6.1389,-3.56287 -1.9636,0.61135 -3.43435,-0.38194 -4.05146,-2.73618 -0.53285,-2.03277 -4.45712,-5.47299 -8.72061,-7.64494 -7.12467,-3.62953 -7.6028,-4.34159 -5.91004,-8.80167 1.01296,-2.66897 1.83959,-8.57433 1.83695,-13.12304 -0.004,-7.38411 0.6358,-8.5904 5.97324,-11.25694 3.28792,-1.64262 7.60958,-2.98753 9.60368,-2.98869 4.58504,-0.003 10.57434,-3.0668 16.64445,-8.51535 2.60585,-2.33901 9.00374,-5.14239 14.21753,-6.22973 5.21379,-1.08734 14.45758,-3.10697 20.54177,-4.48808 10.06314,-2.28432 11.22756,-2.21593 12.89369,0.75722 1.35648,2.4206 4.31318,3.26687 11.3994,3.26275 12.47125,-0.007 18.11984,4.09287 30.13186,21.87163 8.31459,12.30628 10.27476,14.09534 16.54362,15.09952 13.99027,2.24105 15.75543,2.96833 20.72487,8.53917 3.21711,3.60644 6.86868,5.64266 10.11562,5.64078 2.79463,-0.002 6.70478,1.78905 8.68921,3.97927 3.16455,3.49271 4.94381,3.83031 14.4743,2.74645 13.97945,-1.58982 18.5366,0.68704 18.54158,9.26379 0.006,10.00758 12.2419,24.31463 22.82265,26.68538 7.8693,1.76322 12.88619,6.58011 6.85696,6.58361 -4.56975,0.003 -5.66823,3.71567 -2.22394,7.51714 4.75866,5.25213 1.36122,6.11916 -21.3207,5.44109 l -20.32961,-0.60775 0.003,5.03427 c 0.002,3.27919 -1.88796,6.52636 -5.4209,9.31417 -4.7779,3.7702 -6.14867,4.01826 -11.51033,2.08298 -8.17624,-2.9512 -7.18235,-3.28136 -18.90879,6.28129 -5.71718,4.66224 -12.61593,9.03562 -15.33055,9.71862 -3.47885,0.87528 -5.25703,2.85345 -6.02441,6.70197 -1.32946,6.66742 -2.97526,6.66277 -21.47558,-0.0607 z"
       id="two" />
    <path
       style="fill:#920a0a;fill-opacity:1;stroke-width:1.89615"
       d="m 135.94294,219.04382 c -2.86235,-5.24705 -3.11946,-7.2161 -1.31912,-10.10262 2.43913,-3.91073 -0.10911,-8.97524 -4.51467,-8.97268 -1.25033,7.3e-4 -6.77484,-9.30594 -12.27669,-20.68148 -5.50185,-11.37554 -12.13486,-22.67749 -14.74002,-25.11546 -4.220491,-3.94961 -10.100015,-14.8104 -10.102251,-18.6611 -4.62e-4,-0.79389 1.705439,-1.8907 3.790889,-2.43735 4.498992,-1.1793 5.044022,-6.67533 0.822342,-8.29253 -1.631193,-0.62486 -5.091858,-0.16593 -7.690366,1.01986 -4.62078,2.10861 -4.905617,1.76646 -12.967153,-15.57623 -4.533427,-9.7527 -11.782327,-23.970357 -16.108668,-31.594788 -4.32634,-7.62443 -7.607405,-15.209974 -7.291254,-16.856764 0.665029,-3.464054 7.815777,-5.329326 21.681164,-5.65553 9.091526,-0.213892 9.703192,0.05347 8.722467,3.81269 -1.402037,5.374148 5.964722,11.025526 14.438681,11.076572 5.460029,0.03289 6.239239,0.592067 5.385459,3.864695 -1.39793,5.358404 3.44582,9.445406 11.189,9.440908 4.78115,-0.0028 6.93396,-1.0106 7.93197,-3.713301 1.35695,-3.674755 1.42559,-3.674201 7.32947,0.05907 3.82798,2.420595 5.68184,4.932967 5.18292,7.023951 -1.30606,5.473646 2.18891,8.360824 11.36658,9.389882 7.58897,0.850916 8.76812,1.567498 8.7703,5.329825 0.002,3.25676 1.60947,4.87603 6.41095,6.45757 5.50036,1.81174 7.38098,1.53626 13.27194,-1.9441 3.77493,-2.23022 6.86307,-4.82394 6.86252,-5.76381 -0.001,-2.315676 5.17481,-2.178791 6.63165,0.17537 0.6424,1.03808 -1.01271,2.88254 -3.67802,4.09881 -3.7763,1.72325 -4.84521,3.59629 -4.84237,8.4853 0.003,5.51287 1.30199,7.14274 10.70713,13.43652 20.90219,13.98745 18.76569,13.26295 25.15788,8.53125 6.18436,-4.57785 14.26605,-5.74646 12.97863,-1.87671 -0.43047,1.2939 -3.70021,3.21565 -7.26611,4.27057 -9.36316,2.76995 -11.22238,4.4 -11.21922,9.83634 0.002,3.15524 2.53865,7.25191 7.26667,11.73483 4.63515,4.39488 7.37478,8.77427 7.57039,12.10154 0.27866,4.73982 -0.28896,5.21459 -6.23854,5.21805 -3.59981,0.002 -10.87363,1.71285 -16.16405,3.80169 -5.29042,2.08884 -12.49307,3.79956 -16.00588,3.8016 -4.54607,0.003 -8.72106,1.95612 -14.48525,6.77765 -5.38527,4.50458 -9.35639,6.44573 -11.85363,5.79423 -2.13962,-0.55819 -5.77455,0.61053 -8.44858,2.71644 -2.5813,2.03288 -6.24216,3.69704 -8.13524,3.69814 -2.86019,0.002 -3.53702,1.84492 -4.0043,10.90521 l -0.56233,10.9032 z"
       id="one" />
    
  </g>
</svg>
